HIERARCHY
ROOT Hips
{
	OFFSET -3.958830 18.904000 13.208200
	CHANNELS 6 Xposition Yposition Zposition Zrotation Yrotation Xrotation 
	JOINT LHipJoint
	{
		OFFSET 0.000000 0.000000 0.000000
		CHANNELS 3 Zrotation Yrotation Xrotation
		JOINT LeftUpLeg
		{
			OFFSET 1.800000 -1.400000 0.085000
			CHANNELS 3 Zrotation Yrotation Xrotation
			JOINT LeftLeg
			{
				OFFSET 2.215000 -6.000000 0.000000
				CHANNELS 3 Zrotation Yrotation Xrotation
				JOINT LeftFoot
				{
					OFFSET 2.500000 -6.900000 0.000000
					CHANNELS 3 Zrotation Yrotation Xrotation
					JOINT LeftToeBase
					{
						OFFSET 0.200000 -0.500000 1.950000
						CHANNELS 3 Zrotation Yrotation Xrotation
						End Site
						{
							OFFSET 0.000000 0.000000 0.000000
						}
					}
				}
			}
		}
	}
	JOINT RHipJoint
	{
		OFFSET 0.000000 0.000000 0.000000
		CHANNELS 3 Zrotation Yrotation Xrotation
		JOINT RightUpLeg
		{
			OFFSET -1.800000 -1.400000 0.085000
			CHANNELS 3 Zrotation Yrotation Xrotation
			JOINT RightLeg
			{
				OFFSET -2.215000 -6.000000 0.000000
				CHANNELS 3 Zrotation Yrotation Xrotation
				JOINT RightFoot
				{
					OFFSET -2.500000 -6.900000 0.000000
					CHANNELS 3 Zrotation Yrotation Xrotation
					JOINT RightToeBase
					{
						OFFSET -0.200000 -0.500000 1.950000
						CHANNELS 3 Zrotation Yrotation Xrotation
						End Site
						{
							OFFSET 0.000000 0.000000 0.000000
						}
					}
				}
			}
		}
	}
	JOINT LowerBack
	{
		OFFSET 0.000000 0.000000 0.000000
		CHANNELS 3 Zrotation Yrotation Xrotation
		JOINT Spine
		{
			OFFSET -0.087000 1.940000 -0.288900
			CHANNELS 3 Zrotation Yrotation Xrotation
			JOINT Spine1
			{
				OFFSET 0.000000 1.950000 0.060000
				CHANNELS 3 Zrotation Yrotation Xrotation
				JOINT Neck
				{
					OFFSET 0.000000 0.000000 0.000000
					CHANNELS 3 Zrotation Yrotation Xrotation
					JOINT Neck1
					{
						OFFSET 0.000000 1.600000 0.340000
						CHANNELS 3 Zrotation Yrotation Xrotation
						JOINT Head
						{
							OFFSET 0.000000 1.667000 -0.240000
							CHANNELS 3 Zrotation Yrotation Xrotation
							End Site
							{
								OFFSET 0.000000 0.000000 0.000000
							}
						}
					}
				}
				JOINT LeftShoulder
				{
					OFFSET 0.000000 0.000000 0.000000
					CHANNELS 3 Zrotation Yrotation Xrotation
					JOINT LeftArm
					{
						OFFSET 2.700000 1.550000 -0.730000
						CHANNELS 3 Zrotation Yrotation Xrotation
						JOINT LeftForeArm
						{
							OFFSET 5.450000 0.000000 0.000000
							CHANNELS 3 Zrotation Yrotation Xrotation
							JOINT LeftHand
							{
								OFFSET 3.450000 0.000000 0.000000
								CHANNELS 3 Zrotation Yrotation Xrotation
								JOINT LeftHandIndex1
								{
									OFFSET 0.750000 0.000000 0.000000
									CHANNELS 3 Zrotation Yrotation Xrotation
									End Site
									{
										OFFSET 0.000000 0.000000 0.000000
									}
								}
							}
						}
					}
				}
				JOINT RightShoulder
				{
					OFFSET 0.000000 0.000000 0.000000
					CHANNELS 3 Zrotation Yrotation Xrotation
					JOINT RightArm
					{
						OFFSET -2.700000 1.550000 -0.730000
						CHANNELS 3 Zrotation Yrotation Xrotation
						JOINT RightForeArm
						{
							OFFSET -5.450000 0.000000 0.000000
							CHANNELS 3 Zrotation Yrotation Xrotation
							JOINT RightHand
							{
								OFFSET -3.450000 0.000000 0.000000
								CHANNELS 3 Zrotation Yrotation Xrotation
								JOINT RightHandIndex1
								{
									OFFSET -0.750000 0.000000 0.000000
									CHANNELS 3 Zrotation Yrotation Xrotation
									End Site
									{
										OFFSET 0.000000 0.000000 0.000000
									}
								}
							}
						}
					}
				}
			}
		}
	}
}
MOTION
Frames: 7
Frame Time: 0.016667
4.938680 16.800360 1.088030 -7.976159 14.533549 -2.906519 -15.178271 13.149952 3.512338 20.369496 -2.331886 -14.072693 -12.247107 6.421369 8.274720 0.052893 4.684998 2.798536 0.558990 0.611340 0.310500 18.142470 -9.048970 4.210059 -13.214866 4.983488 -39.833612 4.695879 -1.456445 1.312312 -0.245762 -1.044717 3.743146 0.126040 0.010910 0.085550 -3.568149 -3.389208 -9.104408 10.015761 -9.545229 32.111323 -4.825744 -4.658608 19.706499 4.237093 -5.971263 -26.400520 -22.875754 6.905619 65.113878 5.427340 -9.165860 -12.352280 -28.698974 -40.778921 11.309573 -42.021075 -9.867961 -1.114426 9.611142 11.160258 0.711918 -3.448014 2.906776 0.501230 -0.341490 0.410270 0.213050 21.720663 46.628692 16.589804 36.367960 9.559338 -4.246497 -11.050469 -10.600811 1.358917 3.117459 -1.107212 0.151380 0.377480 -0.147410 0.184720 
4.846780 16.859420 1.105560 -6.895160 14.090860 -2.696807 -15.265597 13.254165 3.559784 19.492831 -2.208296 -12.832319 -11.789668 5.840997 5.880216 0.027726 4.543519 2.861921 0.540460 0.591990 0.295990 18.038016 -9.059726 4.128271 -12.924885 4.917791 -38.744891 6.188886 -1.707628 2.473319 -0.245195 -1.107933 3.724778 0.120880 0.012550 0.080280 -3.287668 -3.620910 -9.097442 7.267069 -7.820050 32.316399 -2.901969 -4.181545 18.797683 3.691294 -6.059538 -25.659908 -22.513810 6.991052 65.781104 5.891330 -8.692320 -12.632430 -27.793354 -39.682439 10.880316 -44.237088 -9.812466 -1.389257 10.798902 11.704953 0.881086 -3.450496 2.924284 0.529950 -0.342190 0.409890 0.195440 22.175325 45.620471 16.960962 36.777827 7.786710 -4.342972 -10.887162 -9.945048 1.327750 3.059318 -1.081177 0.132070 0.386890 -0.120000 0.168550 
4.691410 16.962500 1.144330 -5.485617 12.527680 -2.196429 -15.359769 13.329955 3.597250 18.350260 -1.962531 -11.178459 -11.184509 5.277506 3.367484 -0.024274 4.470304 2.909499 0.505260 0.524760 0.307660 17.938534 -9.155246 3.996991 -11.458010 5.334731 -37.274002 8.281043 -2.282895 5.541490 -0.228191 -1.221499 3.676120 0.105560 0.011310 0.084600 -2.989837 -3.661459 -9.030138 3.703467 -5.402627 31.818274 -1.408855 -3.006607 17.741401 3.212499 -5.798476 -24.002493 -20.552033 6.288579 66.195841 5.268460 -7.830140 -12.602630 -26.323504 -37.417118 10.325842 -46.094252 -9.343104 -1.554046 11.341609 12.512312 1.022207 -3.496446 2.907552 0.572630 -0.330190 0.396600 0.151470 21.835610 43.794594 16.875022 38.801445 6.521652 -5.252598 -13.012983 -10.219147 1.419568 3.007401 -1.125654 0.088390 0.387860 -0.074910 0.120810 
4.510430 17.053110 1.188330 -4.422252 10.589465 -1.709481 -15.441906 13.459213 3.562993 16.956701 -1.605615 -10.038185 -10.345844 4.971785 2.319017 -0.025986 4.334017 2.962337 0.499100 0.492850 0.350670 17.851117 -9.326639 3.839979 -9.071131 5.822133 -34.855587 9.789722 -2.908915 8.578453 -0.241053 -1.377700 3.616409 0.075240 -0.030050 0.110530 -2.731121 -3.639841 -8.883870 0.889118 -3.055886 31.186561 -0.079009 -1.636328 15.490305 3.066240 -5.436487 -22.136489 -18.643422 5.873037 66.734397 4.275430 -6.561640 -12.259580 -25.103542 -33.951026 9.556535 -49.012957 -8.539612 -2.154903 13.551582 12.096490 1.209964 -3.494834 2.952273 0.597260 -0.335210 0.417400 0.117720 20.951992 41.002720 16.529438 41.476245 4.790315 -6.330946 -15.396563 -10.179201 1.493114 2.977577 -1.195907 0.098070 0.341170 -0.071440 0.085820 
4.340870 17.110920 1.260700 -3.545221 9.457820 -1.231910 -15.455409 13.668596 3.454335 15.167758 -1.307965 -9.939035 -9.742316 5.093914 3.768833 -0.057910 4.172337 3.008132 0.433440 0.387650 0.317670 17.799892 -9.655251 3.668773 -6.353574 5.661075 -31.273364 10.094292 -3.382909 10.365505 -0.238070 -1.536570 3.578913 0.005590 -0.040300 0.124940 -2.644937 -3.506507 -8.696082 -1.087759 -1.765399 30.783530 0.722265 -0.922496 11.050419 2.853202 -5.540123 -20.565268 -18.091188 6.186958 67.804186 4.650450 -6.044130 -10.859730 -25.243748 -28.890098 8.506997 -51.452285 -5.791654 -2.961408 15.449928 10.888064 1.300811 -3.495700 2.960451 0.633380 -0.339890 0.407250 0.082750 21.505600 36.586488 15.800159 43.182151 1.934372 -7.191356 -17.302244 -9.316439 1.584509 2.948907 -1.204237 0.084120 0.288990 -0.029440 0.059190 
4.207500 17.140670 1.369430 -3.343995 11.057123 -0.607243 -15.421156 13.680398 3.579866 14.228042 -1.198257 -9.421109 -11.122921 5.205228 3.189667 -0.020733 4.224398 2.989775 0.378910 0.296290 0.314510 17.806490 -9.921291 3.463972 -4.308146 5.175320 -28.023201 10.095532 -4.132179 13.340403 -0.274491 -1.795998 3.513409 -0.066750 -0.074150 0.104620 -2.751743 -3.279034 -8.642633 -0.585128 -2.781697 30.460290 -0.163111 -1.673521 3.995624 3.378255 -5.705991 -18.851048 -18.271226 7.412476 71.506763 4.740750 -5.577030 -9.134170 -26.416455 -21.714321 7.023036 -53.004170 -1.240283 -4.096463 18.247378 8.588192 1.226741 -3.471295 2.885180 0.690040 -0.371560 0.416050 0.048600 21.335556 29.745061 13.992901 45.656477 -1.027587 -8.159525 -19.992876 -7.399104 1.586601 2.921901 -1.166372 0.064070 0.264650 -0.008900 0.025690 
4.075020 17.146330 1.496370 -2.820386 12.689318 1.440470 -15.384072 13.698629 3.622119 12.343797 -1.360077 -10.559512 -12.212431 5.424078 4.242728 -0.049097 4.113506 3.003698 0.325760 0.171220 0.346800 17.809587 -10.194908 3.392779 -1.503971 4.385856 -24.924491 8.754695 -3.991532 12.304259 -0.275471 -1.706485 3.552635 -0.147720 -0.140510 0.096310 -2.861026 -2.981102 -8.628810 -0.336144 -3.696524 28.857537 -1.004811 -2.345462 -5.075407 3.966971 -5.463834 -16.959723 -17.180996 7.780941 75.761418 4.108230 -5.038600 -6.442950 -25.827472 -12.695584 4.953581 -54.144239 3.710108 -4.788419 19.482197 5.884220 1.014908 -3.466041 2.787918 0.759940 -0.413120 0.426940 -0.002170 19.145205 20.784935 11.520876 48.635342 -4.159639 -8.871736 -22.338006 -5.033886 1.582906 2.921476 -1.113372 0.037530 0.201640 0.007050 -0.035500 
